<?xml version="1.0" encoding="UTF-8"?>
<svg width="257px" height="105px" viewBox="0 0 257 105" version="1.1" xmlns="http://www.w3.org/2000/svg" xmlns:xlink="http://www.w3.org/1999/xlink">
    <!-- Generator: Sketch 48.2 (47327) - http://www.bohemiancoding.com/sketch -->
    <title>cloudybay-logo</title>
    <desc>Created with Sketch.</desc>
    <defs></defs>
    <g id="Original" stroke="none" stroke-width="1" fill="none" fill-rule="evenodd">
        <g id="cloudybay-logo">
            <g id="logo">
                <path d="M5.88424828,96.7362531 L40.0690759,63.6353551 C42.2914207,61.4202531 46.2505931,61.0323347 48.9562483,62.6721714 C51.6596966,64.4111918 51.9488,67.4969061 49.7286621,69.7142122 L15.5416276,102.914294 C13.3192828,105.036824 9.2630069,105.418131 6.65886897,103.778294 C3.95321379,102.138457 3.66411034,98.9535592 5.88424828,96.7362531" id="blue" fill="#1D95D3"></path>
                <path d="M3.27635862,67.2092735 L37.4633931,34.1105796 C39.683531,31.8910694 43.6427034,31.503151 46.3483586,33.1429878 C49.0518069,34.8820082 49.3409103,37.9699265 47.1207724,40.1894367 L12.9337379,73.3829061 C10.7113931,75.5054367 6.65732414,75.891151 4.04877241,74.2513143 C1.34532414,72.6114776 1.05622069,69.4265796 3.27635862,67.2092735" id="green" fill="#45A849"></path>
                <path d="M1.44242759,35.4599184 L35.6294621,2.2642449 C37.9444966,0.0491428571 41.9058759,-0.33877551 44.6093241,1.39804082 C47.215669,3.04008163 47.6040828,6.22057143 45.3817379,8.34530612 L11.1969103,41.5387755 C8.97456552,43.7604898 4.91828966,44.1462041 2.31194483,42.4071837 C-0.391503448,40.7673469 -0.779917241,37.5846531 1.44242759,35.4599184" id="red" fill="#BC1D21"></path>
            </g>
            <path d="M175.677166,61.0703501 L176.354684,53.7373705 L178.863925,53.7373705 L180.024753,57.5967175 L181.567373,53.7373705 L184.175925,53.7373705 L183.981718,61.0703501 L182.050684,61.0703501 L182.050684,57.501942 L180.79496,61.0703501 L178.863925,61.0703501 L177.705304,57.3079828 L177.416201,61.0703501 L175.677166,61.0703501 Z M169.592753,53.7373705 L175.869166,53.7373705 L175.869166,55.5733705 L173.843235,55.5733705 L173.551925,60.9755746 L171.428891,60.9755746 L171.620891,55.5733705 L169.493442,55.5733705 L169.592753,53.7373705 Z M94.6531665,1.14577869 C94.6531665,1.14577869 81.1337182,-1.93993559 73.5044768,2.01639094 C65.8752354,6.06749298 58.8264078,13.8831664 61.6269596,25.3664318 C64.4275113,36.8496971 76.4043389,40.5172889 93.3996492,38.009044 L94.1698561,28.0686358 C94.1698561,28.0686358 84.4153734,30.5790848 79.8802009,28.937044 C75.2435113,27.2972073 73.2153734,22.375493 74.5682009,17.9386767 C75.9188216,13.4026767 78.7193734,10.9914113 83.356063,10.0238195 C87.9905458,8.96365625 95.2335802,11.1831664 95.2335802,11.1831664 L94.6531665,1.14577869 Z M112.906408,0.76226849 C112.906408,0.76226849 111.359373,17.7447175 110.975373,38.2030032 L98.6123389,38.2030032 C98.6123389,38.2030032 99.4818561,23.2439011 99.9651665,14.3658603 C100.448477,5.58700318 100.448477,0.663084817 100.448477,0.663084817 L112.906408,0.76226849 Z M136.372339,24.1123093 C136.083235,27.9738603 134.055097,29.8076562 131.543649,29.8076562 C129.032201,29.8076562 127.004063,27.8746767 127.19827,24.1123093 C127.487373,20.2529624 129.515511,18.3221869 132.029166,18.3221869 C134.536201,18.3221869 136.566546,20.1559828 136.372339,24.1123093 Z M148.541166,24.1123093 C148.34696,34.1496971 141.006822,38.8774522 131.83496,38.8774522 C122.563787,38.8774522 114.645442,33.8587583 115.031649,24.1123093 C115.415649,14.2710848 122.563787,9.25239094 131.83496,9.25239094 C141.006822,9.25239094 148.735373,13.980146 148.541166,24.1123093 Z M172.201304,9.82986033 L184.367925,9.82986033 C184.367925,9.82986033 182.823097,26.8145134 182.920201,38.2030032 L171.234684,38.2030032 L171.234684,35.8865134 C171.234684,35.8865134 169.493442,39.0692073 161.769304,38.8774522 C154.045166,38.7782685 152.114132,34.2466767 152.114132,30.962595 C152.114132,27.6829216 153.080753,14.6567991 152.886546,9.82986033 L165.055373,9.82986033 C165.055373,9.82986033 164.861166,17.0702685 164.572063,19.5763093 C164.28296,22.1837379 163.991649,25.5581869 164.47496,27.0084726 C165.148063,28.6483093 166.792201,29.0318195 167.950822,28.7430848 C169.592753,28.3573705 170.75358,26.7197379 171.13758,24.9807175 C172.007097,21.3131256 172.201304,14.5598195 172.201304,10.7974522 L172.201304,9.82986033 Z M208.22227,22.0867583 C208.12296,23.6296154 207.158546,30.0963909 202.813166,29.6136971 C198.467787,29.2257787 199.048201,24.5002277 199.628615,22.5694522 C200.204615,20.5439011 201.460339,18.8048807 203.874684,18.0334522 C206.386132,17.3567991 208.41427,17.839493 208.41427,17.839493 C208.41427,17.839493 208.41427,20.5439011 208.22227,22.0867583 Z M209.08958,0.76226849 L221.256201,0.76226849 C221.256201,0.76226849 220.680201,7.99826849 220.099787,18.1304318 C219.519373,28.262595 219.325166,38.2030032 219.325166,38.2030032 L207.93096,38.1038195 L208.12296,36.0804726 C208.12296,36.0804726 204.744201,39.5541052 197.69758,38.7782685 C190.644339,38.009044 186.78227,32.4128807 187.360477,24.2092889 C187.943097,16.1026767 192.76958,11.5688807 196.728753,10.3147583 C200.787235,9.06063584 204.744201,8.86447257 208.89758,9.44635012 C208.89758,9.44635012 208.994684,6.84112563 209.08958,4.71859502 L209.08958,0.76226849 Z M256.50696,9.92683992 C256.50696,9.92683992 243.179511,41.2887175 242.501994,42.9285542 C242.115787,43.893942 240.86227,46.4991664 238.545029,48.5247175 C236.613994,50.0697787 233.716339,51.0351664 230.143373,51.132146 C226.572615,51.2291256 222.995235,50.2637379 222.417029,50.1667583 L221.256201,40.8060236 C221.256201,40.8060236 225.21758,42.4458603 227.729029,42.3510848 C229.660063,42.2519011 231.301994,40.1315746 232.171511,38.4895338 L222.803235,9.82986033 L234.972063,9.82986033 L238.931235,25.5581869 C241.828891,17.839493 244.724339,9.92683992 244.724339,9.92683992 L256.50696,9.92683992 Z M73.1182699,66.6665134 L73.4073734,57.5967175 C73.4073734,57.5967175 79.9773044,57.5967175 81.1337182,57.6959011 C82.2923389,57.7906767 85.7704078,58.3703501 85.381994,62.1327175 C84.8986837,65.9898603 79.9773044,66.6665134 79.9773044,66.6665134 L73.1182699,66.6665134 Z M72.540063,83.6489624 L72.924063,73.5190032 C72.924063,73.5190032 79.1055802,73.5190032 80.3613044,73.6137787 C81.6170285,73.7129624 85.8653044,74.0964726 85.6733044,78.6346767 C85.4813044,83.1662685 80.1693044,83.6489624 80.1693044,83.6489624 L72.540063,83.6489624 Z M63.2688906,69.0821869 C63.557994,57.4027583 63.6528906,50.7464318 63.6528906,50.7464318 L86.4457182,50.8412073 C86.4457182,50.8412073 94.4589596,51.3239011 95.2335802,59.0470032 C95.9088906,66.7656971 89.6324768,70.0453705 89.6324768,70.0453705 C89.6324768,70.0453705 97.0675113,72.3618603 95.5248906,81.3368807 C93.9756492,90.4088807 84.8986837,90.6954113 79.5888906,90.6954113 C74.2790975,90.6954113 62.3022699,90.5962277 62.3022699,90.5962277 C62.3022699,90.5962277 62.9797871,80.7572073 63.2688906,69.0821869 Z M103.538132,61.6522277 C103.538132,61.6522277 111.359373,59.5252889 117.637994,60.0123909 C124.011511,60.4928807 128.548891,61.9409624 128.548891,67.8236562 C128.548891,70.7220236 127.972891,76.9948399 127.778684,81.8195746 C127.487373,86.933044 127.584477,90.5962277 127.584477,90.5962277 L117.927097,90.6954113 L118.701718,76.6069216 C118.701718,76.6069216 116.770684,77.4753297 114.451235,78.1519828 C112.036891,78.9234113 108.075511,79.7918195 107.883511,82.5910032 C107.786408,85.3879828 111.359373,85.581942 113.195511,85.2932073 C115.031649,84.9052889 117.152477,84.5195746 117.152477,84.5195746 L115.609856,90.7901869 C115.609856,90.7901869 108.850132,92.143493 104.407649,90.6954113 C99.9651665,89.3443093 98.4203389,85.0000644 98.5152354,82.1083093 C98.7094423,79.209942 100.351373,75.3527991 106.435787,73.5190032 C112.520201,71.5904318 118.313304,70.9159828 118.701718,69.1769624 C119.182822,67.4423501 118.893718,66.4725542 115.221442,65.8950848 C111.55358,65.3198195 102.571511,68.3063501 102.571511,68.3063501 L103.538132,61.6522277 Z M131.543649,60.4928807 L141.201029,60.4928807 L147.093442,81.045942 L154.81758,60.6824318 L164.47496,60.5876562 C164.47496,60.5876562 150.955511,92.2382685 148.249856,97.8388399 C145.546408,103.529779 140.137304,105.652309 130.287925,103.529779 L129.321304,95.9058603 C129.321304,95.9058603 134.152201,97.4509216 135.986132,97.2569624 C137.917166,97.1621869 140.622822,94.3630032 141.587235,90.5962277 L137.628063,78.9234113 L131.543649,60.4928807 Z" id="text" fill="#7A7374"></path>
        </g>
    </g>
</svg>