<?xml version="1.0" encoding="UTF-8"?>
<svg width="52px" height="105px" viewBox="0 0 52 105" version="1.1" xmlns="http://www.w3.org/2000/svg" xmlns:xlink="http://www.w3.org/1999/xlink">
  <title></title>
  <desc></desc>
  <defs></defs>
  <g id="logo">
    <path d="M5.88424828,96.7362531 L40.0690759,63.6353551 C42.2914207,61.4202531 46.2505931,61.0323347 48.9562483,62.6721714 C51.6596966,64.4111918 51.9488,67.4969061 49.7286621,69.7142122 L15.5416276,102.914294 C13.3192828,105.036824 9.2630069,105.418131 6.65886897,103.778294 C3.95321379,102.138457 3.66411034,98.9535592 5.88424828,96.7362531" id="blue" fill="#1D95D3">
      <animate
        attributeName="opacity"
        from="1" to="0"
        begin="0.5s" dur="1s"
        repeatCount="indefinite"
        keyTimes="0; .8; 1" calcMode="linear"
      />
    </path>
    <path d="M3.27635862,67.2092735 L37.4633931,34.1105796 C39.683531,31.8910694 43.6427034,31.503151 46.3483586,33.1429878 C49.0518069,34.8820082 49.3409103,37.9699265 47.1207724,40.1894367 L12.9337379,73.3829061 C10.7113931,75.5054367 6.65732414,75.891151 4.04877241,74.2513143 C1.34532414,72.6114776 1.05622069,69.4265796 3.27635862,67.2092735" id="green" fill="#45A849">
      <animate
        attributeName="opacity"
        from="1" to="0"
        begin="0.3s" dur="1s"
        repeatCount="indefinite"
        keyTimes="0; .8; 1"
        calcMode="linear"
      />
    </path>
    <path d="M1.44242759,35.4599184 L35.6294621,2.2642449 C37.9444966,0.0491428571 41.9058759,-0.33877551 44.6093241,1.39804082 C47.215669,3.04008163 47.6040828,6.22057143 45.3817379,8.34530612 L11.1969103,41.5387755 C8.97456552,43.7604898 4.91828966,44.1462041 2.31194483,42.4071837 C-0.391503448,40.7673469 -0.779917241,37.5846531 1.44242759,35.4599184" id="red" fill="#BC1D21">
      <animate
        attributeName="opacity"
        from="1" to="0"
        begin="0s" dur="1s"
        repeatCount="indefinite"
        keyTimes="0; .8; 1"
        calcMode="linear"
      />
    </path>
  </g>
</svg>
